<?xml version="1.0" encoding="UTF-8" standalone="no"?>
<!DOCTYPE svg PUBLIC "-//W3C//DTD SVG 1.1//EN" "http://www.w3.org/Graphics/SVG/1.1/DTD/svg11.dtd">
<svg width="100%" height="100%" viewBox="0 0 484 506" version="1.1" xmlns="http://www.w3.org/2000/svg" xmlns:xlink="http://www.w3.org/1999/xlink" xml:space="preserve" xmlns:serif="http://www.serif.com/" style="fill-rule:evenodd;clip-rule:evenodd;stroke-linecap:round;stroke-linejoin:round;stroke-miterlimit:1.5;">
    <path d="M110.894,218L314.454,218L380,163L92.5,-179.629L-92.5,-24.396L110.894,218Z" style="fill:url(#_Linear1);"/>
    <path d="M107,199.5L107,205.7C107,215.8 115.2,224 125.3,224L372.7,224C382.8,224 391,215.8 391,205.7L391,181.3C391,171.2 382.8,163 372.7,163L125.3,163C115.2,163 107,171.2 107,181.3L107,193.5L106.962,193.5C87.273,193.753 69.538,191.111 56.715,184.886C44.66,179.035 37.087,169.965 37,156.98C36.915,144.196 43.355,136.047 54.493,130.959C66.491,125.479 83.623,123.413 104.024,123C107.567,123 416,123 416,123C416.008,123 416.016,123 416.024,123C445.848,122.757 474.356,107.691 474,79.961C473.699,56.605 454.347,41.686 416.054,41C416.036,41 416.018,41 416,41L319.004,41C299.78,40.959 285.872,36.797 277.885,26.948C272.621,20.456 270.019,11.553 270,-0.005C269.997,-1.661 268.651,-3.003 266.995,-3C265.339,-2.997 263.997,-1.651 264,0.005C264.022,13.207 267.212,23.312 273.225,30.727C282.154,41.737 297.504,46.955 318.994,47L415.972,47C449.767,47.611 467.735,59.421 468,80.039C468.154,91.992 461.931,101.057 452.52,107.196C442.681,113.615 429.429,116.889 415.987,117C415.987,117 104,117 104,117C103.98,117 103.96,117 103.94,117.001C82.535,117.431 64.586,119.753 52,125.502C38.546,131.647 30.897,141.578 31,157.02C31.103,172.41 39.807,183.349 54.095,190.284C67.605,196.841 86.261,199.762 107,199.5Z" style="fill:rgb(55,55,55);stroke:rgb(47,51,57);stroke-width:1px;"/>
    <path d="M279.56,233.901C276.88,232.757 275,230.096 275,227L275,212.582C267.391,209.586 262,202.168 262,193.5C262,182.186 271.186,173 282.5,173C293.814,173 303,182.186 303,193.5C303,202.168 297.609,209.586 290,212.582L290,227C290,230.096 288.12,232.757 285.44,233.901C285.479,234.094 285.5,234.295 285.5,234.5L285.5,506C285.5,507.656 284.156,509 282.5,509C280.844,509 279.5,507.656 279.5,506L279.5,234.5C279.5,234.295 279.521,234.094 279.56,233.901ZM384.901,196.44C383.757,199.12 381.096,201 378,201L363.582,201C360.586,208.609 353.168,214 344.5,214C333.186,214 324,204.814 324,193.5C324,182.186 333.186,173 344.5,173C353.168,173 360.586,178.391 363.582,186L378,186C381.096,186 383.757,187.88 384.901,190.56C385.094,190.521 385.295,190.5 385.5,190.5L394.278,190.5C407.386,190.5 418.024,201.104 418.066,214.212C418.29,283.981 419,505.99 419,505.99C419.005,507.646 417.665,508.995 416.01,509C414.354,509.005 413.005,507.665 413,506.01C413,506.01 412.066,214.231 412.066,214.231C412.035,204.429 404.08,196.5 394.278,196.5L385.5,196.5C385.295,196.5 385.094,196.479 384.901,196.44ZM150.56,233.901C147.88,232.757 146,230.096 146,227L146,212.582C138.391,209.586 133,202.168 133,193.5C133,182.186 142.186,173 153.5,173C164.814,173 174,182.186 174,193.5C174,202.168 168.609,209.586 161,212.582L161,227C161,230.096 159.12,232.757 156.44,233.901C156.479,234.094 156.5,234.295 156.5,234.5C156.5,234.5 156.5,237.458 156.5,241.403C156.5,253.984 146.361,264.215 133.781,264.328C92.326,264.702 0.027,265.534 0.027,265.534C-1.629,265.549 -2.985,264.217 -3,262.561C-3.015,260.905 -1.683,259.549 -0.027,259.534C-0.027,259.534 92.272,258.702 133.727,258.328C143.015,258.245 150.5,250.692 150.5,241.403C150.5,237.458 150.5,234.5 150.5,234.5C150.5,234.295 150.521,234.094 150.56,233.901ZM215,172.052L215,214.948C203.832,214.177 195,204.862 195,193.5C195,182.138 203.832,172.823 215,172.052ZM218,172.052C229.168,172.823 238,182.138 238,193.5C238,204.862 229.168,214.177 218,214.948L218,172.052ZM205,191C206.104,191 207,192.12 207,193.5C207,194.88 206.104,196 205,196C203.896,196 203,194.88 203,193.5C203,192.12 203.896,191 205,191ZM228,191C229.104,191 230,192.12 230,193.5C230,194.88 229.104,196 228,196C226.896,196 226,194.88 226,193.5C226,192.12 226.896,191 228,191Z" style="fill:rgb(245,245,245);stroke:rgb(47,47,45);stroke-width:1px;"/>
    <defs>
        <linearGradient id="_Linear1" x1="0" y1="0" x2="1" y2="0" gradientUnits="userSpaceOnUse" gradientTransform="matrix(-809,-433,433,-809,534,278)"><stop offset="0" style="stop-color:black;stop-opacity:0.5"/><stop offset="1" style="stop-color:white;stop-opacity:0"/></linearGradient>
    </defs>
</svg>
