<?xml version="1.0" encoding="UTF-8" standalone="no"?><!DOCTYPE svg PUBLIC "-//W3C//DTD SVG 1.1//EN" "http://www.w3.org/Graphics/SVG/1.1/DTD/svg11.dtd"><svg width="100%" height="100%" viewBox="0 0 512 512" version="1.1" xmlns="http://www.w3.org/2000/svg" xmlns:xlink="http://www.w3.org/1999/xlink" xml:space="preserve" xmlns:serif="http://www.serif.com/" style="fill-rule:evenodd;clip-rule:evenodd;stroke-linejoin:round;stroke-miterlimit:2;"><g><path id="path8575" d="M511.401,256c0,140.437 -115.292,256 -255.401,256c-140.109,0 -255.401,-115.563 -255.401,-256c0,-140.437 115.292,-256 255.401,-256c140.109,0 255.401,115.563 255.401,256Z" style="fill:#fee900;fill-rule:nonzero;"/><path id="path13898" d="M490.593,254.791c0,134.871 -107.17,245.854 -237.409,245.854c-130.238,0 -237.408,-110.983 -237.408,-245.854c0,-134.872 107.17,-245.854 237.408,-245.854c130.239,0 237.409,110.982 237.409,245.854Z" style="fill:url(#_Linear1);fill-rule:nonzero;"/><path id="path14783" d="M439.921,411.499c0,53.022 -85.567,96.652 -189.552,96.652c-103.984,0 -189.551,-43.63 -189.551,-96.652c0,-53.022 85.567,-96.652 189.551,-96.652c103.985,0 189.552,43.63 189.552,96.652Z" style="fill:url(#_Radial2);fill-rule:nonzero;"/></g><g><path id="path9492" d="M286.982,486.939c72.15,-9.541 52.991,-88.285 72.697,-153.766c20.318,-67.509 106.699,-169.431 73.383,-208.915c-38.876,-46.074 -68.328,-23.628 -90.711,-38.986c-22.383,-15.358 -35.342,-61.431 -85.998,-60.25c-50.657,1.182 -56.547,60.25 -78.931,60.25c-22.383,0 -55.369,-30.715 -83.642,23.628c-19.985,38.412 2.526,161.018 31.808,228.004c37.698,86.241 80.108,152.397 161.394,150.035Z"/><path id="path21800" d="M285.909,477.947c68.865,-9.207 50.578,-85.201 69.388,-148.395c19.392,-65.152 101.842,-163.514 70.042,-201.62c-37.107,-44.464 -65.218,-22.802 -86.582,-37.623c-21.364,-14.822 -33.733,-59.286 -82.084,-58.146c-48.35,1.14 -53.972,58.146 -75.337,58.146c-21.364,0 -52.848,-29.643 -79.835,22.802c-19.075,37.071 2.411,155.395 30.36,220.042c35.982,83.228 76.462,147.075 154.048,144.794Z" style="fill:url(#_Radial3);"/></g><defs><linearGradient id="_Linear1" x1="0" y1="0" x2="1" y2="0" gradientUnits="userSpaceOnUse" gradientTransform="matrix(32.8431,193.305,-193.305,32.8431,253.184,8.93699)"><stop offset="0" style="stop-color:#fff;stop-opacity:1"/><stop offset="1" style="stop-color:#fff;stop-opacity:0"/></linearGradient><radialGradient id="_Radial2" cx="0" cy="0" r="1" gradientUnits="userSpaceOnUse" gradientTransform="matrix(189.552,-0.000218183,0.000104528,96.6525,250.37,411.499)"><stop offset="0" style="stop-color:#f8a900;stop-opacity:1"/><stop offset="0.86" style="stop-color:#ffce02;stop-opacity:0.5"/><stop offset="1" style="stop-color:#ffda01;stop-opacity:0"/></radialGradient><radialGradient id="_Radial3" cx="0" cy="0" r="1" gradientUnits="userSpaceOnUse" gradientTransform="matrix(413.086,128.759,-85.5751,274.543,197.068,156.472)"><stop offset="0" style="stop-color:#ffb904;stop-opacity:1"/><stop offset="1" style="stop-color:#f89900;stop-opacity:1"/></radialGradient></defs></svg>