<?xml version="1.0" encoding="UTF-8" standalone="no"?>
<!DOCTYPE svg PUBLIC "-//W3C//DTD SVG 1.1//EN" "http://www.w3.org/Graphics/SVG/1.1/DTD/svg11.dtd">
<svg width="100%" height="100%" viewBox="0 0 265 316" version="1.1" xmlns="http://www.w3.org/2000/svg" xmlns:xlink="http://www.w3.org/1999/xlink" xml:space="preserve" xmlns:serif="http://www.serif.com/" style="fill-rule:evenodd;clip-rule:evenodd;stroke-linejoin:round;stroke-miterlimit:2;">
    <g id="Tavola-da-disegno1" serif:id="Tavola da disegno1" transform="matrix(1.69872,0,0,1.48357,-400.992,-170.644)">
        <rect x="236.056" y="115.023" width="156" height="213" style="fill:none;"/>
        <clipPath id="_clip1">
            <rect x="236.056" y="115.023" width="156" height="213"/>
        </clipPath>
        <g clip-path="url(#_clip1)">
            <g transform="matrix(1.16255,0,0,0.684958,143.255,115.023)">
                <ellipse cx="133.5" cy="154.5" rx="79.5" ry="154.5" style="fill:rgb(43,62,81);"/>
                <clipPath id="_clip2">
                    <ellipse cx="133.5" cy="154.5" rx="79.5" ry="154.5"/>
                </clipPath>
                <g clip-path="url(#_clip2)">
                    <g transform="matrix(0.875796,0,0,0.875796,16.8344,19.6815)">
                        <ellipse cx="133.5" cy="154.5" rx="79.5" ry="154.5" style="fill:rgb(171,48,22);"/>
                        <clipPath id="_clip3">
                            <ellipse cx="133.5" cy="154.5" rx="79.5" ry="154.5"/>
                        </clipPath>
                        <g clip-path="url(#_clip3)">
                            <g transform="matrix(1,0,0,0.956364,-7.10543e-14,13.4836)">
                                <ellipse cx="133.5" cy="154.5" rx="79.5" ry="154.5" style="fill:rgb(197,75,52);"/>
                                <clipPath id="_clip4">
                                    <ellipse cx="133.5" cy="154.5" rx="79.5" ry="154.5"/>
                                </clipPath>
                                <g clip-path="url(#_clip4)">
                                    <g transform="matrix(0.578182,0,0,1.1749,71.9236,-37.597)">
                                        <path d="M104,150L104,77.5C104,75.568 105.568,74 107.5,74C109.432,74 111,75.568 111,77.5L111,150.866C113.378,152.125 115,154.624 115,157.5C115,161.639 111.639,165 107.5,165L32.5,165C28.361,165 25,161.639 25,157.5C25,153.361 28.361,150 32.5,150L104,150Z" style="fill:white;"/>
                                    </g>
                                    <g transform="matrix(0.578182,0,0,1.1749,71.9236,-37.597)">
                                        <path d="M77.039,130.575C76.06,131.044 74.964,131.306 73.806,131.306C69.667,131.306 66.306,127.946 66.306,123.806C66.306,119.667 69.667,116.306 73.806,116.306C77.946,116.306 81.306,119.667 81.306,123.806C81.306,124.964 81.044,126.06 80.575,127.039L100.608,147.073C102.584,145.763 104.954,145 107.5,145C114.399,145 120,150.601 120,157.5C120,160.046 119.237,162.416 117.927,164.392L166.462,212.926C167.438,213.902 167.438,215.486 166.462,216.462C165.486,217.438 163.902,217.438 162.926,216.462L114.392,167.927C112.416,169.237 110.046,170 107.5,170C100.601,170 95,164.399 95,157.5C95,154.954 95.763,152.584 97.073,150.608L77.039,130.575ZM107.448,150L107.5,150L107.548,150C111.666,150.026 115,153.377 115,157.5L115,157.554L114.999,157.608L114.998,157.662L114.998,157.693L114.996,157.742L114.994,157.79L114.993,157.838L114.99,157.886L114.988,157.932L114.985,157.984L114.981,158.038L114.977,158.091L114.973,158.144L114.968,158.197L114.963,158.25L114.956,158.314L114.951,158.358L114.945,158.408L114.939,158.461L114.932,158.513L114.925,158.565L114.917,158.618L114.909,158.67L114.901,158.722L114.891,158.781L114.883,158.826L114.874,158.877L114.864,158.928L114.854,158.979L114.843,159.031L114.833,159.082L114.822,159.133L114.808,159.193L114.798,159.236L114.786,159.285L114.774,159.335L114.761,159.385L114.747,159.435L114.734,159.485L114.72,159.535L114.706,159.585L114.689,159.641L114.676,159.685L114.661,159.733L114.646,159.782L114.63,159.831L114.614,159.88L114.597,159.929L114.58,159.977L114.56,160.035L114.546,160.075C114.534,160.106 114.523,160.137 114.511,160.168L114.496,160.206L114.479,160.249L114.463,160.291L114.445,160.334L114.428,160.376L114.414,160.409C114.381,160.487 114.347,160.564 114.312,160.64L114.299,160.668L114.29,160.688C113.546,162.267 112.267,163.546 110.688,164.29L110.668,164.299L110.64,164.312C110.564,164.347 110.487,164.381 110.409,164.414L110.376,164.428L110.334,164.445L110.291,164.463L110.249,164.479L110.206,164.496L110.168,164.511C110.137,164.522 110.106,164.534 110.075,164.546L110.026,164.563L109.977,164.58L109.929,164.597L109.88,164.614L109.831,164.63L109.773,164.649L109.731,164.662L109.684,164.677L109.634,164.691L109.585,164.706L109.535,164.72L109.485,164.734L109.435,164.747L109.385,164.761L109.328,164.775L109.284,164.786L109.234,164.798L109.183,164.81L109.133,164.822L109.082,164.833L109.031,164.843L108.979,164.854L108.919,164.866L108.875,164.874L108.825,164.883L108.773,164.892L108.722,164.901L108.67,164.909L108.618,164.917L108.565,164.925L108.513,164.932L108.455,164.94L108.408,164.945L108.356,164.952L108.303,164.957L108.25,164.963L108.197,164.968L108.144,164.973L108.091,164.977L108.029,164.982L107.983,164.985L107.931,164.988L107.878,164.991L107.824,164.993L107.77,164.995L107.742,164.996L107.693,164.998L107.645,164.999L107.597,164.999L107.548,165L107.5,165C103.361,165 100,161.639 100,157.5L100,157.446L100.001,157.392L100.002,157.338L100.002,157.307L100.004,157.258L100.006,157.21L100.007,157.162L100.01,157.114L100.012,157.068L100.015,157.016L100.019,156.962L100.023,156.909L100.027,156.856L100.032,156.803L100.037,156.75L100.044,156.686L100.049,156.642L100.055,156.592L100.061,156.539L100.068,156.487L100.075,156.435L100.083,156.382L100.091,156.33L100.099,156.278L100.109,156.219L100.117,156.174L100.126,156.123L100.136,156.072L100.146,156.021L100.157,155.969L100.167,155.918L100.178,155.867L100.192,155.807L100.202,155.764L100.214,155.715L100.226,155.665L100.239,155.615L100.253,155.565L100.266,155.515L100.28,155.465L100.294,155.415L100.311,155.359L100.324,155.315L100.339,155.267L100.354,155.218L100.37,155.169L100.386,155.12L100.403,155.071L100.42,155.023L100.44,154.965L100.454,154.925C100.466,154.894 100.477,154.863 100.489,154.832L100.504,154.794L100.521,154.751L100.537,154.709L100.555,154.666L100.572,154.624L100.586,154.591C100.619,154.513 100.653,154.436 100.688,154.36L100.701,154.332L100.71,154.312C101.454,152.733 102.733,151.454 104.312,150.71L104.332,150.701L104.36,150.688C104.436,150.653 104.513,150.619 104.591,150.586L104.624,150.572L104.666,150.555L104.709,150.537L104.751,150.521L104.794,150.504L104.832,150.489C104.863,150.478 104.894,150.466 104.925,150.454L104.974,150.437L105.023,150.42L105.071,150.403L105.12,150.386L105.169,150.37L105.227,150.351L105.269,150.338L105.316,150.323L105.366,150.309L105.415,150.294L105.465,150.28L105.515,150.266L105.565,150.253L105.615,150.239L105.672,150.225L105.716,150.214L105.766,150.202L105.817,150.19L105.867,150.178L105.918,150.167L105.969,150.157L106.021,150.146L106.081,150.134L106.125,150.126L106.175,150.117L106.227,150.108L106.278,150.099L106.33,150.091L106.382,150.083L106.435,150.075L106.487,150.068L106.545,150.06L106.592,150.055L106.644,150.048L106.697,150.043L106.75,150.037L106.803,150.032L106.856,150.027L106.909,150.023L106.971,150.018L107.017,150.015L107.069,150.012L107.122,150.009L107.176,150.007L107.23,150.005L107.258,150.004L107.307,150.002L107.355,150.001L107.403,150.001L107.448,150Z" style="fill:rgb(43,62,81);"/>
                                    </g>
                                </g>
                            </g>
                        </g>
                    </g>
                </g>
            </g>
        </g>
    </g>
</svg>
